<?xml version="1.0" encoding="UTF-8"?><svg id="Layer_2" xmlns="http://www.w3.org/2000/svg" width="73" height="70" viewBox="0 0 73 70"><path d="M71.91,38.7439c-.35,1.1-1.64,2.57-2.1299,2.93-1.8701,1.36-5.53,2.35-5.63,3.23-.09,.73,.44,1.03,1.28,1.09,.5,.03,3.51-.57,3.87,.1,.66,1.23,.15,3.0699-.44,3.91-.57,.8-1.86,2.16-4.17,3.88-2.45,1.83-6.97,2.44-7.93,2.51-2.54,.21-3.97,.99-5.63,1.9-1.63,.9-4.17,2.09-6.79,4.19-1.54,1.23-3.2,2.67-6.65,5.28-.36,.27-.63,.48-.83,.62-.12,.08-.21,.15-.28,.2-.07-.05-.16-.12-.28-.2-.2-.14-.47-.35-.83-.62-3.45-2.61-5.11-4.05-6.65-5.28-2.62-2.1-5.16-3.29-6.79-4.19-1.66-.91-3.09-1.69-5.63-1.9-.96-.07-5.48-.68-7.9301-2.51-2.3-1.72-3.6-3.08-4.17-3.88-.59-.84-1.1-2.68-.44-3.91,.36-.67,3.37-.07,3.87-.1,.84-.06,1.37-.36,1.28-1.09-.1-.88-3.76-1.87-5.62-3.23-.5-.36-1.79-1.83-2.14-2.93-.21-.66-.61-1.95,0-2.6,.41-.44,1.1-.4,2.29-.31,1.97,.15,3.36,.57,3.38-.02,.05-1.64-1.9-3-2.44-3.43-1.51-1.19-2.5-3.65-2.95-4.64-.28-.59-.48-1.81-.38-2.47,.06-.36,.42-.6,.79-.56,.79,.08,2.22,.68,3.14,.06,.48-.65,.58-1.38,.24-3.5-.17-1.09,.07-2.56,1.13-3.93,.35-.47,1.9-.53,2.35-.4301,.96,.22,2.16,1.96,2.18,3.1,.02,.94-.33,2.83,.35,2.84,.97,.02,1.96-2.46,3.67-2.29,1.14,.11,1.76,1.64,1.83,1.83,.33,.83,.28,1.27,.19,2.14-.07,.62-1.67,3.41-1.91,4.5099-.47,2.22,.15,3.25,.35,3.28,1.25,.2,1.27-1.89,2.5-3,.69-.62,2.08-1.12,2.75-.71,.47,.59,.78,3.33,.36,5.35-1.29,6.28-1.54,7.95-.63,8.29,.53,.2,1.26-.25,1.86-.73,.38-.67,.55-1.58,1.1-2.02,.46-.41,1.2-.68,1.83-.46,.91,.32,.87,1.36,.94,1.71,.06,.37,.17,1.6-.3,2.58-.47,.95-.9,1.59-1.25,2.41-.29,.71-1.27,3.78-.84,6.68,.55,3.7,2.15,5.53,2.84,6.17,.77,.71,3.62,3.11,3.62,3.11,.83,.83,4.84,3.8,4.92,3.46,.19-.69,.1-4.71,0-7.18-.0699-1.93-2.27-1.01-5.34-3.36-1.58-1.21-2.54-1.96-3.06-3.36-.6-1.65-.56-4.1,.77-5.19,.96-.8,2-.35,2.75-1.38,.59-.8,.49-1.82,.45-2.13-.1-1.07-.67-1.79-1.07-2.3-.23-.29-.3799-.42-1.68-1.52-1.75-1.49-1.84-1.55-2.13-1.84-.94-.9-1.42-1.36-1.84-2.14-.53-.97-.85-1.41-1.01-3.2-.17-1.91,.31-2.98,.4-3.21,.19-.45,.89-.77,1.7599-.92,2.16-.36,2.83,.97,4.41,.57,.9-.23,.81-1.57,.57-2.36-.28-.91-.3-1.41-1.39-2.79-.63-.8-1.7-1.89-2.29-3.93-.38-1.33-.51-2.88-.46-4.32,.05-1.79,.1-2.7,.76-3.21,.74-.56,1.96-.46,2.75,0,.92,.55,.77,1.3,1.84,1.99,.1801,.12,1.3,.84,1.98,.46,.94-.53,.28-2.57-.01-4.54-.33-2.23-.39-3.02-.29-4.63,.05-.97,.1299-1.93,.8-2.92,.58-.86,1.8211-1.1387,2.75-1.1385,.7608-.0002,2.17,.2785,2.75,1.1385,.67,.99,.75,1.95,.81,2.92,.09,1.61,.03,2.4-.3,4.63-.29,1.97-.95,4.01-.01,4.54,.68,.3799,1.8-.34,1.99-.46,1.06-.69,.91-1.44,1.83-1.99,.79-.46,2.0099-.56,2.75,0,.67,.51,.71,1.42,.7599,3.21,.05,1.44-.08,2.9901-.46,4.32-.59,2.04-1.66,3.13-2.29,3.93-1.08,1.38-1.11,1.88-1.39,2.79-.24,.79-.33,2.13,.57,2.36,1.58,.4,2.25-.93,4.41-.57,.87,.15,1.57,.47,1.76,.92,.1,.23,.57,1.3,.4,3.21-.16,1.79-.48,2.23-1.0099,3.2-.42,.78-.9,1.24-1.83,2.14-.3,.29-.39,.35-2.14,1.84-1.3,1.1-1.45,1.23-1.68,1.52-.4,.51-.97,1.23-1.07,2.3-.03,.31-.14,1.33,.46,2.13,.74,1.03,1.78,.58,2.75,1.38,1.32,1.09,1.37,3.54,.76,5.19-.51,1.4-1.47,2.15-3.06,3.36-3.07,2.35-5.27,1.43-5.34,3.36-.1,2.47-.18,6.49,0,7.18,.09,.34,4.09-2.6299,4.93-3.46,0,0,2.84-2.4,3.62-3.11,.68-.64,2.28-2.47,2.83-6.17,.43-2.9-.55-5.97-.84-6.68-.35-.82-.78-1.46-1.24-2.41-.48-.98-.37-2.21-.3-2.58,.06-.35,.03-1.39,.93-1.71,.63-.22,1.37,.05,1.83,.46,.55,.44,.72,1.35,1.1,2.02,.6,.48,1.33,.93,1.86,.73,.92-.34,.66-2.01-.6299-8.29-.42-2.02-.1-4.76,.36-5.35,.68-.41,2.06,.09,2.75,.71,1.23,1.11,1.25,3.2,2.5,3,.21-.03,.82-1.06,.35-3.28-.24-1.1-1.84-3.89-1.91-4.5099-.09-.8701-.14-1.3101,.19-2.14,.07-.19,.69-1.72,1.83-1.83,1.72-.17,2.7,2.31,3.67,2.29,.68-.0099,.33-1.9,.35-2.84,.02-1.14,1.22-2.88,2.18-3.1,.46-.1,2-.04,2.35,.4301,1.06,1.37,1.3,2.84,1.13,3.93-.34,2.12-.2401,2.85,.24,3.5,.92,.62,2.35,.02,3.15-.06,.36-.04,.72,.2,.78,.56,.1,.66-.1,1.88-.37,2.47-.46,.99-1.45,3.45-2.96,4.64-.54,.43-2.49,1.79-2.44,3.43,.02,.59,1.41,.17,3.38,.02,1.19-.09,1.88-.13,2.29,.31,.61,.65,.21,1.94,0,2.6Z" fill="#d97f30"/><path d="M36.58,68.5839c0-.2-.27-.1-.28-.2,.12,.08,.21,.15,.28,.2Z"/><path d="M36.86,68.3839c-.01,.1-.1725,.1214-.28,.2,.07-.05,.16-.12,.28-.2Z"/><path d="M9.5852,29.2218c1.1953,5.7782,3.8672,13.3593,9.7734,21.0937,3.2082,4.2012,8.8166,10.4442,17.1415,15.6094" fill="none" stroke="#fcfcfc" stroke-linecap="round" stroke-miterlimit="10" stroke-width=".8"/><path d="M64.2149,29.2218c-1.1953,5.7782-3.8672,13.3593-9.7734,21.0937-3.2082,4.2012-9.1801,10.4442-17.5049,15.6094" fill="none" stroke="#fcfcfc" stroke-linecap="round" stroke-miterlimit="10" stroke-width=".8"/><line x1="36.72" y1="18.0528" x2="36.72" y2="65.9249" fill="none" stroke="#fff" stroke-linecap="round" stroke-miterlimit="10" stroke-width=".8"/></svg>