<?xml version="1.0" encoding="utf-8"?>
<!-- Generator: Adobe Illustrator 27.0.1, SVG Export Plug-In . SVG Version: 6.00 Build 0)  -->
<svg version="1.1" xmlns="http://www.w3.org/2000/svg" xmlns:xlink="http://www.w3.org/1999/xlink" x="0px" y="0px" width="73px"
	 height="70px" viewBox="0 0 73 70" style="enable-background:new 0 0 73 70;" xml:space="preserve">
<style type="text/css">
	.st0{display:none;}
	.st1{display:inline;}
	.st2{fill:#A6A6A6;}
	.st3{fill:none;stroke:#FCFCFC;stroke-width:0.8;stroke-linecap:round;stroke-miterlimit:10;}
	.st4{fill:none;stroke:#FFFFFF;stroke-width:0.8;stroke-linecap:round;stroke-miterlimit:10;}
</style>
<g id="Layer_1" class="st0">
	<g class="st1">
		
			<image style="overflow:visible;" width="73" height="70" xlink:href="black-oak-leaves.png"  transform="matrix(1 0 0 1 0 0.2461)">
		</image>
	</g>
</g>
<g id="Layer_2">
	<path class="st2" d="M71.91,38.99c-0.35,1.1-1.64,2.57-2.1299,2.93c-1.8701,1.36-5.53,2.35-5.63,3.23
		c-0.09,0.73,0.44,1.03,1.28,1.09c0.5,0.03,3.51-0.57,3.87,0.1c0.66,1.23,0.15,3.0699-0.44,3.91c-0.57,0.8-1.86,2.16-4.17,3.88
		c-2.45,1.83-6.97,2.44-7.93,2.51c-2.54,0.21-3.97,0.99-5.63,1.9c-1.63,0.9-4.17,2.09-6.79,4.19c-1.54,1.23-3.2,2.67-6.65,5.28
		c-0.36,0.27-0.63,0.48-0.83,0.62c-0.12,0.08-0.21,0.15-0.28,0.2c-0.07-0.05-0.16-0.12-0.28-0.2c-0.2-0.14-0.47-0.35-0.83-0.62
		c-3.45-2.61-5.11-4.05-6.65-5.28c-2.62-2.1-5.16-3.29-6.79-4.19c-1.66-0.91-3.09-1.69-5.63-1.9c-0.96-0.07-5.48-0.68-7.9301-2.51
		c-2.3-1.72-3.6-3.08-4.17-3.88c-0.59-0.84-1.1-2.68-0.44-3.91c0.36-0.67,3.37-0.07,3.87-0.1c0.84-0.06,1.37-0.36,1.28-1.09
		c-0.1-0.88-3.76-1.87-5.62-3.23c-0.5-0.36-1.79-1.83-2.14-2.93c-0.21-0.66-0.61-1.95,0-2.6c0.41-0.44,1.1-0.4,2.29-0.31
		c1.97,0.15,3.36,0.57,3.38-0.02c0.05-1.64-1.9-3-2.44-3.43c-1.51-1.19-2.5-3.65-2.95-4.64c-0.28-0.59-0.48-1.81-0.38-2.47
		c0.06-0.36,0.42-0.6,0.79-0.56c0.79,0.08,2.22,0.68,3.14,0.06c0.48-0.65,0.58-1.38,0.24-3.5c-0.17-1.09,0.07-2.56,1.13-3.93
		c0.35-0.47,1.9-0.53,2.35-0.4301c0.96,0.22,2.16,1.96,2.18,3.1c0.02,0.94-0.33,2.83,0.35,2.84c0.97,0.02,1.96-2.46,3.67-2.29
		c1.14,0.11,1.76,1.64,1.83,1.83c0.33,0.83,0.28,1.27,0.19,2.14c-0.07,0.62-1.67,3.41-1.91,4.5099c-0.47,2.22,0.15,3.25,0.35,3.28
		c1.25,0.2,1.27-1.89,2.5-3c0.69-0.62,2.08-1.12,2.75-0.71c0.47,0.59,0.78,3.33,0.36,5.35c-1.29,6.28-1.54,7.95-0.63,8.29
		c0.53,0.2,1.26-0.25,1.86-0.73c0.38-0.67,0.55-1.58,1.1-2.02c0.46-0.41,1.2-0.68,1.83-0.46c0.91,0.32,0.87,1.36,0.94,1.71
		c0.06,0.37,0.17,1.6-0.3,2.58c-0.47,0.95-0.9,1.59-1.25,2.41c-0.29,0.71-1.27,3.78-0.84,6.68c0.55,3.7,2.15,5.53,2.84,6.17
		c0.77,0.71,3.62,3.11,3.62,3.11c0.83,0.83,4.84,3.8,4.92,3.46c0.19-0.69,0.1-4.71,0-7.18c-0.0699-1.93-2.27-1.01-5.34-3.36
		c-1.58-1.21-2.54-1.96-3.06-3.36c-0.6-1.65-0.56-4.1,0.77-5.19c0.96-0.8,2-0.35,2.75-1.38c0.59-0.8,0.49-1.82,0.45-2.13
		c-0.1-1.07-0.67-1.79-1.07-2.3c-0.23-0.29-0.3799-0.42-1.68-1.52c-1.75-1.49-1.84-1.55-2.13-1.84c-0.94-0.9-1.42-1.36-1.84-2.14
		c-0.53-0.97-0.85-1.41-1.01-3.2c-0.17-1.91,0.31-2.98,0.4-3.21c0.19-0.45,0.89-0.77,1.7599-0.92c2.16-0.36,2.83,0.97,4.41,0.57
		c0.9-0.23,0.81-1.57,0.57-2.36c-0.28-0.91-0.3-1.41-1.39-2.79c-0.63-0.8-1.7-1.89-2.29-3.93c-0.38-1.33-0.51-2.88-0.46-4.32
		c0.05-1.79,0.1-2.7,0.76-3.21c0.74-0.56,1.96-0.46,2.75,0c0.92,0.55,0.77,1.3,1.84,1.99c0.1801,0.12,1.3,0.84,1.98,0.46
		c0.94-0.53,0.28-2.57-0.01-4.54c-0.33-2.23-0.39-3.02-0.29-4.63C33.08,3.95,33.16,2.99,33.83,2
		c0.58-0.86,1.8211-1.1387,2.75-1.1385C37.3408,0.8613,38.75,1.14,39.33,2c0.67,0.99,0.75,1.95,0.81,2.92
		c0.09,1.61,0.03,2.4-0.3,4.63c-0.29,1.97-0.95,4.01-0.01,4.54c0.68,0.3799,1.8-0.34,1.99-0.46c1.06-0.69,0.91-1.44,1.83-1.99
		c0.79-0.46,2.0099-0.56,2.75,0c0.67,0.51,0.71,1.42,0.7599,3.21c0.05,1.44-0.08,2.9901-0.46,4.32c-0.59,2.04-1.66,3.13-2.29,3.93
		c-1.08,1.38-1.11,1.88-1.39,2.79c-0.24,0.79-0.33,2.13,0.57,2.36c1.58,0.4,2.25-0.93,4.41-0.57c0.87,0.15,1.57,0.47,1.76,0.92
		c0.1,0.23,0.57,1.3,0.4,3.21c-0.16,1.79-0.48,2.23-1.0099,3.2c-0.42,0.78-0.9,1.24-1.83,2.14c-0.3,0.29-0.39,0.35-2.14,1.84
		c-1.3,1.1-1.45,1.23-1.68,1.52c-0.4,0.51-0.97,1.23-1.07,2.3c-0.03,0.31-0.14,1.33,0.46,2.13c0.74,1.03,1.78,0.58,2.75,1.38
		c1.32,1.09,1.37,3.54,0.76,5.19c-0.51,1.4-1.47,2.15-3.06,3.36c-3.07,2.35-5.27,1.43-5.34,3.36c-0.1,2.47-0.18,6.49,0,7.18
		c0.09,0.34,4.09-2.6299,4.93-3.46c0,0,2.84-2.4,3.62-3.11c0.68-0.64,2.28-2.47,2.83-6.17c0.43-2.9-0.55-5.97-0.84-6.68
		c-0.35-0.82-0.78-1.46-1.24-2.41C46.82,42.6,46.93,41.37,47,41c0.06-0.35,0.03-1.39,0.93-1.71c0.63-0.22,1.37,0.05,1.83,0.46
		c0.55,0.44,0.72,1.35,1.1,2.02c0.6,0.48,1.33,0.93,1.86,0.73c0.92-0.34,0.66-2.01-0.6299-8.29c-0.42-2.02-0.1-4.76,0.36-5.35
		c0.68-0.41,2.06,0.09,2.75,0.71c1.23,1.11,1.25,3.2,2.5,3c0.21-0.03,0.82-1.06,0.35-3.28c-0.24-1.1-1.84-3.89-1.91-4.5099
		C56.05,23.91,56,23.47,56.33,22.64c0.07-0.19,0.69-1.72,1.83-1.83c1.72-0.17,2.7,2.31,3.67,2.29c0.68-0.0099,0.33-1.9,0.35-2.84
		c0.02-1.14,1.22-2.88,2.18-3.1c0.46-0.1,2-0.04,2.35,0.4301c1.06,1.37,1.3,2.84,1.13,3.93c-0.34,2.12-0.2401,2.85,0.24,3.5
		c0.92,0.62,2.35,0.02,3.15-0.06c0.36-0.04,0.72,0.2,0.78,0.56c0.1,0.66-0.1,1.88-0.37,2.47c-0.46,0.99-1.45,3.45-2.96,4.64
		c-0.54,0.43-2.49,1.79-2.44,3.43c0.02,0.59,1.41,0.17,3.38,0.02c1.19-0.09,1.88-0.13,2.29,0.31
		C72.52,37.04,72.12,38.33,71.91,38.99z"/>
	<path d="M36.58,68.83c0-0.2-0.27-0.1-0.28-0.2C36.42,68.71,36.51,68.78,36.58,68.83z"/>
	<path d="M36.86,68.63c-0.01,0.1-0.1725,0.1214-0.28,0.2C36.65,68.78,36.74,68.71,36.86,68.63z"/>
	<path class="st3" d="M9.5852,29.4679c1.1953,5.7782,3.8672,13.3594,9.7734,21.0937C22.5668,54.7628,28.1752,61.0058,36.5,66.171"/>
	<path class="st3" d="M64.2149,29.4679c-1.1953,5.7782-3.8672,13.3594-9.7734,21.0937
		c-3.2082,4.2012-9.1801,10.4442-17.5049,15.6094"/>
	<line class="st4" x1="36.72" y1="18.2989" x2="36.72" y2="66.171"/>
</g>
</svg>
